<svg xmlns="http://www.w3.org/2000/svg" viewBox="0 0 265 265"><defs><style>.cls-1{fill:#fff;}.cls-2{fill:none;}</style></defs><title>Asset 1</title><g id="Layer_2" data-name="Layer 2"><g id="Homepage"><g id="Logo"><circle class="cls-1" cx="133.02" cy="132.96" r="124.57"/><path class="cls-2" d="M176.78,95.12l0,0a2.11,2.11,0,0,1-1.29.89l-40.91,8.86h0l40.91-8.86a2.11,2.11,0,0,0,1.29-.89l0,0a1.15,1.15,0,0,1,.66-.47A1.15,1.15,0,0,0,176.78,95.12Z"/><path class="cls-2" d="M199,121.34c.3,2-4,3.86-5.79,4.67s-3,1.34-3,2.93a2.65,2.65,0,0,0,.35,1.3c-4.26.93-8.67,3-10,7.53a54.65,54.65,0,0,1-1.83,5.41,3.94,3.94,0,0,1-1.84,2.19c-1.13.79-6.15.84-6.15.84s3.52,2.92,6.65,2.51c-3.13.41-6.65-2.51-6.65-2.51s5-.05,6.15-.84a3.94,3.94,0,0,0,1.84-2.19,54.65,54.65,0,0,0,1.83-5.41c1.39-4.49,5.79-6.6,10-7.53a2.65,2.65,0,0,1-.35-1.3c0-1.59,1.26-2.15,3-2.93s6.09-2.72,5.79-4.67c-.77-5-2.45-6.86-3.66-7.82-3.27-2.62-6.85-5.42-9.32-7.27h0c2.47,1.84,6.05,4.64,9.32,7.26C196.59,114.48,198.27,116.33,199,121.34Z"/><path class="cls-2" d="M192.39,142.51s.81.71,2.71,2.23c.29.24.15,1.71-.26,2.73l-.26.63a13.68,13.68,0,0,1-2.78.34s0,1.09-.05,1.66c0,.33.39,5,.37,6.36a5.48,5.48,0,0,1-.31,1.76,11.85,11.85,0,0,1-1.39,2A5.24,5.24,0,0,1,188,162c-1.26.44-2.57.73-3.85,1.1-5.18,1.49-17.57,9.34-20.49,10.71a2.7,2.7,0,0,1-.48.16c-5.46,1.1-9.51,7.24-10,8a48.52,48.52,0,0,1-8.25,9.08,40.08,40.08,0,0,1-9.39,6.13A28.73,28.73,0,0,1,123.44,200h0a28.72,28.72,0,0,0,12-2.74,39.87,39.87,0,0,0,9.39-6.13,48.52,48.52,0,0,0,8.25-9.08c.51-.8,4.57-6.94,10-8a2.7,2.7,0,0,0,.48-.16c2.93-1.37,15.31-9.22,20.49-10.71,1.28-.37,2.59-.66,3.85-1.1a5.19,5.19,0,0,0,2.44-1.82,11.85,11.85,0,0,0,1.39-2,5.21,5.21,0,0,0,.31-1.76c0-1.39-.38-6-.37-6.36,0-.57.05-1.66.05-1.66a13.68,13.68,0,0,0,2.78-.34l.26-.63c.41-1,.55-2.49.26-2.73-1.9-1.52-2.68-2.2-2.71-2.23s-1.83-1.61-1.93-1.65a3.68,3.68,0,0,0-1.31-.3,3.68,3.68,0,0,1,1.31.3C190.56,140.9,192.39,142.51,192.39,142.51Z"/><path class="cls-2" d="M180.91,91s-4.61-8.57-7.23-14.47c-1.24-2.78-6.68-7.18-10.83-10.44-3.82-3-6.23-4.9-7.09-6.57h0c.86,1.67,3.27,3.56,7.09,6.57,4.15,3.26,9.59,7.66,10.83,10.44,2.62,5.9,7.23,14.47,7.23,14.47a17.48,17.48,0,0,1,1.63,2.47,1.59,1.59,0,0,1,0,1.55,9.41,9.41,0,0,0-.75,1.76h0a8.81,8.81,0,0,1,.76-1.76,1.61,1.61,0,0,0,0-1.55A17.48,17.48,0,0,0,180.91,91Z"/><path class="cls-2" d="M151.69,59.66a11.42,11.42,0,0,0,1.7.51,2.69,2.69,0,0,0,.51,0,2.69,2.69,0,0,1-.51,0,11.42,11.42,0,0,1-1.7-.51,30.15,30.15,0,0,0-7.12-2.33,31.23,31.23,0,0,0-6.11-.57,31.23,31.23,0,0,1,6.11.57A30.15,30.15,0,0,1,151.69,59.66Z"/><path class="cls-2" d="M118.49,115.79a28.88,28.88,0,0,0,3,3.36,22.77,22.77,0,0,0,4,3.11c1.5.84,3.6,2.09,3.6,2.09h0s-2.1-1.25-3.6-2.09a22.33,22.33,0,0,1-4-3.11,28.08,28.08,0,0,1-3.05-3.36c-1.76-2.11-3.08-4.66-5.52-5.94a11.73,11.73,0,0,0-5.72-1.31,11.73,11.73,0,0,1,5.72,1.31C115.41,111.13,116.73,113.68,118.49,115.79Z"/><path class="cls-2" d="M175.39,99.44l1.48,5.15a1,1,0,0,1,.06.34l.5,8.24a1.61,1.61,0,0,0,1,1.39,8.36,8.36,0,0,0,3.62.69,8.36,8.36,0,0,1-3.62-.69,1.61,1.61,0,0,1-1-1.39l-.49-8.24a1.28,1.28,0,0,0-.07-.34l-1.48-5.15a1.28,1.28,0,0,0-1-.92A1.28,1.28,0,0,1,175.39,99.44Z"/><path class="cls-2" d="M179.72,98.12a.87.87,0,0,0-.44-.11.87.87,0,0,1,.44.11l1.53.89,1.65,1a1.5,1.5,0,0,1,.74,1.3v10.37a1.25,1.25,0,0,1-1.14,1.25,6.11,6.11,0,0,1-1.06,0,6.11,6.11,0,0,0,1.06,0,1.25,1.25,0,0,0,1.14-1.25V101.27a1.46,1.46,0,0,0-.24-.82,1.53,1.53,0,0,0-.5-.48l-1.65-1Z"/><path class="cls-2" d="M132.5,9.9A122.51,122.51,0,0,0,25.73,192.64l68.91-25.83L96.92,164c-.12.09-2.67,1.91-16.61-4-18.74-8-23.49-32.54-21.7-33.58s6.76-3.58,8.4-13.21C68,107.58,68.93,93.55,69.55,91,72.8,77.77,77.76,68.87,88,60.1s25.06-16,33-18.11c9.19-2.49,21-.65,25.33,1.32,3.75,1.71,13.25,9.91,11.55,14.34-.82,2.15,15.6,11.94,18.11,17.82s6.88,13.87,6.88,13.87,2.34,3.57,2.1,4.62c-.18.77-.57,2.21-.88,3.66l.66.38a2.07,2.07,0,0,0,1.75.16l1.6-.57a1.06,1.06,0,0,1,1.42.88,24.83,24.83,0,0,1,.17,2.85,25.09,25.09,0,0,1-.34,4.17c3.58,2.73,7.67,6,7.67,6,2,1.6,3.68,4.24,4.43,9.14s-8.77,7.17-8.77,7.93,4.34,5.28,4.15,7.35-2.73,4.63-2.73,4.63.75.66,2.64,2.17.38,5.18.38,5.18,6.41,14.43,2.73,19.06c-4,5-12.64,13-25.37,13.67-4.26.22-10.28-5-10.28-5-4.9.76-9,7.17-9,7.17s-.67,1-1.93,2.6l76.72,21.19A122.51,122.51,0,0,0,132.5,9.9Z"/><path class="cls-2" d="M188,100.52v4.36h0v-4.37a.15.15,0,0,0-.23-.13h0A.15.15,0,0,1,188,100.52Z"/><path d="M121.13,134.43a10.36,10.36,0,0,1-2.87-5,13.7,13.7,0,0,1-.1-4.95s-1.41,1.71-.85,5.24A6.85,6.85,0,0,0,121.13,134.43Z"/><path d="M98.35,118.59c-4.65,9.16,3.24,14.92,5.3,15.84-.23-.13-9.58-5.6-4-16,.71-1.33,4.75-12.43,15.24-3.21C114.74,115,106.15,103.22,98.35,118.59Z"/><path d="M109.14,131a6.89,6.89,0,0,0,4.79,3.67,10.47,10.47,0,0,1-3.92-4.16c-.52-1.16-.6-3.42.44-6.25C110.38,124.37,107.8,127.77,109.14,131Z"/><path d="M113.61,117.69a6.91,6.91,0,0,0-5.14-3.17,10.56,10.56,0,0,1,4.33,3.75c.63,1.1.93,3.35.18,6.26C113,124.53,115.29,120.84,113.61,117.69Z"/><path d="M114.26,144.07c-.26-.14-.52-.28-.77-.44s-.51-.31-.76-.47a27.17,27.17,0,0,1-2.84-2.22l-.68-.61-.66-.63c-.44-.42-.86-.86-1.29-1.3-.84-.88-1.66-1.79-2.45-2.74a25.42,25.42,0,0,0,2,3.1,29.71,29.71,0,0,0,2.44,2.82,21.51,21.51,0,0,0,2.84,2.46,14.32,14.32,0,0,0,3.36,1.81l.46.16.47.13a7.66,7.66,0,0,0,1,.21,8.65,8.65,0,0,0,2,.06,9.64,9.64,0,0,0,1-.14l.47-.11.24-.06.23-.07.47-.15.45-.18.45-.21.42-.25a5.05,5.05,0,0,0,1.46-1.34,4.91,4.91,0,0,0,.81-1.79,5.07,5.07,0,0,0,.14-1c0-.32,0-.63,0-.95a6.93,6.93,0,0,0-.43-1.81,7.6,7.6,0,0,1,.11,1.82,6.56,6.56,0,0,1-.11.89,5.09,5.09,0,0,1-.23.85,4.56,4.56,0,0,1-.86,1.48,4.8,4.8,0,0,1-1.33,1,6.43,6.43,0,0,1-1.6.6l-.22.05-.21,0c-.14,0-.28.06-.43.07s-.58.09-.86.1a8.2,8.2,0,0,1-3.38-.55l-.21-.07-.2-.08-.41-.17-.39-.2C114.52,144.21,114.39,144.14,114.26,144.07Z"/><path class="cls-1" d="M112.67,161.08a13.56,13.56,0,0,1-4.7,1.38c-1.93.34-8.24,1.53-8.79,1.47l-.15.41-3.09,4.24a29.48,29.48,0,0,0,.31,11.65c2,8.55,7.93,14.61,17.5,18a28.86,28.86,0,0,0,9.69,1.73h0a28.73,28.73,0,0,0,12.06-2.74,40.08,40.08,0,0,0,9.39-6.13,48.52,48.52,0,0,0,8.25-9.08c.51-.8,4.56-6.94,10-8a2.7,2.7,0,0,0,.48-.16c2.92-1.37,15.31-9.22,20.49-10.71,1.28-.37,2.59-.66,3.85-1.1a5.24,5.24,0,0,0,2.44-1.82,11.85,11.85,0,0,0,1.39-2,5.48,5.48,0,0,0,.31-1.76c0-1.39-.38-6-.37-6.36,0-.57.05-1.66.05-1.66a13.68,13.68,0,0,0,2.78-.34l.26-.63c.41-1,.55-2.49.26-2.73-1.9-1.52-2.68-2.2-2.71-2.23s-1.83-1.61-1.93-1.65a3.68,3.68,0,0,0-1.31-.3,2.62,2.62,0,0,0-1.37.35c-1.4.78-2.28,2.53-3.4,3.59a21.49,21.49,0,0,1-3.9,2.83c-.46.24-1,.63-1.79,1a4.14,4.14,0,0,1-1.31.4c-3.13.41-6.65-2.51-6.65-2.51s5-.05,6.15-.84a3.94,3.94,0,0,0,1.84-2.19,54.65,54.65,0,0,0,1.83-5.41c1.38-4.49,5.79-6.6,10-7.53a2.65,2.65,0,0,1-.35-1.3c0-1.59,1.26-2.15,3-2.93s6.09-2.72,5.79-4.67c-.77-5-2.45-6.86-3.66-7.82-3.27-2.62-6.85-5.42-9.32-7.26h0a1,1,0,0,0-.31.72l-.46,6.3a1.61,1.61,0,0,1-.93,1.42,6,6,0,0,1-2.32.56,8.36,8.36,0,0,1-3.62-.69,1.61,1.61,0,0,1-1-1.39l-.5-8.24a1,1,0,0,0-.06-.34l-1.48-5.15a1.28,1.28,0,0,0-1-.92,1.34,1.34,0,0,0-.49,0l-40.24,8.15c-.07.14-.14.27-.22.4a9,9,0,0,0-1.28,3.88c-.07,1.38-.21,1.48.47,4.63a7.84,7.84,0,0,0,3.28,4.81l-6.79,4h0s-2.1-1.25-3.6-2.09a22.77,22.77,0,0,1-4-3.11,28.88,28.88,0,0,1-3-3.36c-1.76-2.11-3.08-4.66-5.52-5.94a11.73,11.73,0,0,0-5.72-1.31,10.71,10.71,0,0,0-2,.23,11.84,11.84,0,0,0-6.94,4.65,20.82,20.82,0,0,0-4.1,8.14A11.19,11.19,0,0,0,96,129.84a44.11,44.11,0,0,0,5.84,7.17,86.89,86.89,0,0,0,7.29,6.81c2.22,1.87,4.54,3.86,5.82,6.52a9.41,9.41,0,0,1,.24,7.9A6.44,6.44,0,0,1,112.67,161.08Zm5.49-36.55a13.7,13.7,0,0,0,.1,4.95,10.36,10.36,0,0,0,2.87,5,6.85,6.85,0,0,1-3.82-4.66C116.75,126.24,118.16,124.53,118.16,124.53Zm-2.7,20.11.2.08.21.07a8.2,8.2,0,0,0,3.38.55c.28,0,.57-.06.86-.1s.29-.05.43-.07l.21,0,.22-.05a6.43,6.43,0,0,0,1.6-.6,4.8,4.8,0,0,0,1.33-1,4.56,4.56,0,0,0,.86-1.48,5.09,5.09,0,0,0,.23-.85,6.56,6.56,0,0,0,.11-.89,7.6,7.6,0,0,0-.11-1.82,6.93,6.93,0,0,1,.43,1.81c0,.32,0,.63,0,.95a5.07,5.07,0,0,1-.14,1,4.91,4.91,0,0,1-.81,1.79,5.05,5.05,0,0,1-1.46,1.34l-.42.25-.45.21-.45.18-.47.15-.23.07-.24.06-.47.11a9.64,9.64,0,0,1-1,.14,8.65,8.65,0,0,1-2-.06,7.66,7.66,0,0,1-1-.21l-.47-.13-.46-.16a14.32,14.32,0,0,1-3.36-1.81,21.51,21.51,0,0,1-2.84-2.46,29.71,29.71,0,0,1-2.44-2.82,25.42,25.42,0,0,1-2-3.1c.79,1,1.61,1.86,2.45,2.74.43.44.85.88,1.29,1.3l.66.63.68.61a27.17,27.17,0,0,0,2.84,2.22c.25.16.5.33.76.47s.51.3.77.44.26.14.4.2l.39.2ZM110,130.53a10.47,10.47,0,0,0,3.92,4.16,6.89,6.89,0,0,1-4.79-3.67c-1.34-3.25,1.24-6.65,1.31-6.74C109.41,127.11,109.49,129.37,110,130.53Zm3-6c.75-2.91.45-5.16-.18-6.26a10.56,10.56,0,0,0-4.33-3.75,6.91,6.91,0,0,1,5.14,3.17C115.29,120.84,113,124.53,113,124.53Zm1.92-9.29c-10.49-9.22-14.53,1.88-15.24,3.21-5.59,10.38,3.76,15.85,4,16-2.06-.92-10-6.68-5.3-15.84C106.15,103.22,114.74,115,114.9,115.24Z"/><path class="cls-1" d="M182.54,93.5A17.48,17.48,0,0,0,180.91,91s-4.61-8.57-7.23-14.47c-1.24-2.78-6.68-7.18-10.83-10.44-3.82-3-6.23-4.9-7.09-6.57h0a3,3,0,0,1-1.86.63,2.69,2.69,0,0,1-.51,0,11.42,11.42,0,0,1-1.7-.51,30.15,30.15,0,0,0-7.12-2.33A31.59,31.59,0,0,0,121,62.12c.63.71,1.27,1.43,1.9,2.16,4.21,4.85,8.29,10,11,15.84a31.59,31.59,0,0,1,2.86,18.37,23.27,23.27,0,0,1-2.19,6.43h0l40.91-8.86a2.11,2.11,0,0,0,1.29-.89l0,0a1.09,1.09,0,0,1,1.47-.35l3.51,2h0a9.41,9.41,0,0,1,.75-1.76A1.59,1.59,0,0,0,182.54,93.5Z"/><path class="cls-1" d="M183.64,111.64V101.27a1.5,1.5,0,0,0-.74-1.3l-1.65-1-1.53-.89a.87.87,0,0,0-.44-.11.82.82,0,0,0-.79.87l.65,12.61a1.28,1.28,0,0,0,1,1.17,6.68,6.68,0,0,0,1.34.24,6.11,6.11,0,0,0,1.06,0A1.25,1.25,0,0,0,183.64,111.64Z"/><path class="cls-1" d="M188,100.52a.15.15,0,0,0-.23-.13h0l-.85.45a.22.22,0,0,0-.1.25l1.18,3.8h0Z"/><path d="M254.59,80.92A133,133,0,1,0,265,132.5,132.12,132.12,0,0,0,254.59,80.92ZM114.93,150.34c-1.28-2.66-3.6-4.65-5.82-6.52a86.89,86.89,0,0,1-7.29-6.81A44.11,44.11,0,0,1,96,129.84a11.19,11.19,0,0,1-1.73-8.28,20.82,20.82,0,0,1,4.1-8.14,11.84,11.84,0,0,1,6.94-4.65,10.71,10.71,0,0,1,2-.23,11.73,11.73,0,0,1,5.72,1.31c2.44,1.28,3.76,3.83,5.52,5.94a28.08,28.08,0,0,0,3.05,3.36,22.33,22.33,0,0,0,4,3.11c1.5.84,3.6,2.09,3.6,2.09l6.79-4a7.84,7.84,0,0,1-3.28-4.81c-.68-3.15-.54-3.25-.47-4.63a9,9,0,0,1,1.28-3.88c.08-.13.15-.26.22-.4l40.24-8.15a1.34,1.34,0,0,1,.49,0,1.28,1.28,0,0,1,1,.92l1.48,5.15a1.28,1.28,0,0,1,.07.34l.49,8.24a1.61,1.61,0,0,0,1,1.39,8.36,8.36,0,0,0,3.62.69,6,6,0,0,0,2.32-.56,1.61,1.61,0,0,0,.93-1.42l.46-6.3a1,1,0,0,1,.31-.72h0c2.47,1.85,6.05,4.65,9.32,7.27,1.21,1,2.89,2.81,3.66,7.82.3,2-4,3.86-5.79,4.67s-3,1.34-3,2.93a2.65,2.65,0,0,0,.35,1.3c-4.26.93-8.66,3-10,7.53a54.65,54.65,0,0,1-1.83,5.41,3.94,3.94,0,0,1-1.84,2.19c-1.13.79-6.15.84-6.15.84s3.52,2.92,6.65,2.51a4.14,4.14,0,0,0,1.31-.4c.79-.36,1.33-.75,1.79-1a21.49,21.49,0,0,0,3.9-2.83c1.12-1.06,2-2.81,3.4-3.59a2.62,2.62,0,0,1,1.37-.35,3.68,3.68,0,0,1,1.31.3c.1,0,1.93,1.65,1.93,1.65s.81.71,2.71,2.23c.29.24.15,1.71-.26,2.73l-.26.63a13.68,13.68,0,0,1-2.78.34s0,1.09-.05,1.66c0,.33.39,5,.37,6.36a5.21,5.21,0,0,1-.31,1.76,11.85,11.85,0,0,1-1.39,2A5.19,5.19,0,0,1,188,162c-1.26.44-2.57.73-3.85,1.1-5.18,1.49-17.56,9.34-20.49,10.71a2.7,2.7,0,0,1-.48.16c-5.45,1.1-9.51,7.24-10,8a48.52,48.52,0,0,1-8.25,9.08,39.87,39.87,0,0,1-9.39,6.13,28.72,28.72,0,0,1-12,2.74h0a28.86,28.86,0,0,1-9.69-1.73c-9.57-3.4-15.46-9.46-17.5-18a29.48,29.48,0,0,1-.31-11.65L99,164.34l.15-.41c.55.06,6.86-1.13,8.79-1.47a13.56,13.56,0,0,0,4.7-1.38,6.44,6.44,0,0,0,2.5-2.84A9.41,9.41,0,0,0,114.93,150.34Zm67.59-55.29a8.81,8.81,0,0,0-.76,1.76h0l-3.51-2a1.09,1.09,0,0,0-1.47.35l0,0a2.11,2.11,0,0,1-1.29.89l-40.91,8.86h0a23.27,23.27,0,0,0,2.19-6.43,31.59,31.59,0,0,0-2.86-18.37c-2.7-5.87-6.78-11-11-15.84-.63-.73-1.27-1.45-1.9-2.16a31.59,31.59,0,0,1,23.58-4.79,30.15,30.15,0,0,1,7.12,2.33,11.42,11.42,0,0,0,1.7.51,2.69,2.69,0,0,0,.51,0,3,3,0,0,0,1.86-.63h0c.86,1.67,3.27,3.56,7.09,6.57,4.15,3.26,9.59,7.66,10.83,10.44,2.62,5.9,7.23,14.47,7.23,14.47a17.48,17.48,0,0,1,1.63,2.47A1.61,1.61,0,0,1,182.52,95.05Zm.38,4.92a1.53,1.53,0,0,1,.5.48,1.46,1.46,0,0,1,.24.82v10.37a1.25,1.25,0,0,1-1.14,1.25,6.11,6.11,0,0,1-1.06,0,6.68,6.68,0,0,1-1.34-.24,1.28,1.28,0,0,1-1-1.17l-.65-12.61a.82.82,0,0,1,.79-.87.87.87,0,0,1,.44.11l1.53.89Zm3.95,1.12a.22.22,0,0,1,.1-.25l.85-.45h0a.15.15,0,0,1,.23.13v4.37h0ZM230.08,206.6l-76.72-21.19c1.26-1.58,1.93-2.6,1.93-2.6s4.06-6.41,9-7.17c0,0,6,5.22,10.28,5C187.26,180,195.88,172,199.9,167c3.68-4.63-2.73-19.06-2.73-19.06s1.51-3.68-.38-5.18-2.64-2.17-2.64-2.17,2.55-2.55,2.73-4.63-4.15-6.6-4.15-7.35,9.53-3,8.77-7.93-2.42-7.54-4.43-9.14c0,0-4.09-3.29-7.67-6a25.09,25.09,0,0,0,.34-4.17,24.83,24.83,0,0,0-.17-2.85,1.06,1.06,0,0,0-1.42-.88l-1.6.57A2.07,2.07,0,0,1,184.8,98l-.66-.38c.31-1.45.7-2.89.88-3.66.24-1-2.1-4.62-2.1-4.62s-4.4-8-6.88-13.87S157.11,59.8,157.93,57.65c1.7-4.43-7.8-12.63-11.55-14.34-4.33-2-16.14-3.81-25.33-1.32-8,2.16-22.73,9.34-33,18.11S72.8,77.77,69.55,91C68.93,93.55,68,107.58,67,113.2c-1.64,9.63-6.61,12.17-8.4,13.21s3,25.61,21.7,33.58c13.94,5.92,16.49,4.1,16.61,4l-2.28,2.81L25.73,192.64A122.58,122.58,0,1,1,255.1,132.5,121.94,121.94,0,0,1,230.08,206.6Z"/></g></g></g></svg>